<?xml version="1.0" encoding="UTF-8" standalone="no"?>
<!-- Created with Inkscape (http://www.inkscape.org/) -->

<svg
   width="108mm"
   height="24mm"
   viewBox="0 0 108 24"
   version="1.1"
   id="svg1"
   inkscape:version="1.3.2 (091e20e, 2023-11-25, custom)"
   sodipodi:docname="Runtime logo.svg"
   inkscape:export-filename="Runtime logo.png"
   inkscape:export-xdpi="188.14999"
   inkscape:export-ydpi="188.14999"
   xmlns:inkscape="http://www.inkscape.org/namespaces/inkscape"
   xmlns:sodipodi="http://sodipodi.sourceforge.net/DTD/sodipodi-0.dtd"
   xmlns="http://www.w3.org/2000/svg"
   xmlns:svg="http://www.w3.org/2000/svg">
  <sodipodi:namedview
     id="namedview1"
     pagecolor="#ffffff"
     bordercolor="#000000"
     borderopacity="0.25"
     inkscape:showpageshadow="2"
     inkscape:pageopacity="0.0"
     inkscape:pagecheckerboard="0"
     inkscape:deskcolor="#d1d1d1"
     inkscape:document-units="mm"
     inkscape:zoom="1.5340488"
     inkscape:cx="171.11581"
     inkscape:cy="-73.335346"
     inkscape:window-width="1858"
     inkscape:window-height="1057"
     inkscape:window-x="1912"
     inkscape:window-y="-8"
     inkscape:window-maximized="1"
     inkscape:current-layer="layer1" />
  <defs
     id="defs1" />
  <g
     inkscape:label="Layer 1"
     inkscape:groupmode="layer"
     id="layer1">
    <g
       id="g11"
       inkscape:label="Final"
       transform="translate(1.0348432,-45.533026)">
      <path
         style="fill:#e0a500;fill-opacity:1;stroke:#e0a500;stroke-width:3.8;stroke-linecap:round;stroke-linejoin:round;stroke-dasharray:none;stroke-opacity:1"
         d="M 3.0868688,49.464695 V 66.083547 H 19.091864 L 17.807927,49.464695 Z"
         id="path25"
         sodipodi:nodetypes="ccccc"
         inkscape:label="Gold" />
      <path
         style="font-weight:900;font-size:22.8579px;line-height:0;font-family:Nim;-inkscape-font-specification:'Nim Heavy';letter-spacing:-1.32292px;fill:#6f6f6f;stroke-width:24.6217;stroke-linecap:round;stroke-linejoin:round"
         d="m 102.96051,60.558813 h -9.196736 q 0.08929,1.473263 1.116108,2.254539 1.037981,0.781276 3.046976,0.781276 1.272364,0 2.466602,-0.457605 1.19423,-0.457604 1.88622,-0.982175 h 0.44644 v 3.225553 q -1.36165,0.546893 -2.56704,0.792437 -1.205402,0.245544 -2.667504,0.245544 -3.772446,0 -5.781442,-1.696485 -2.008995,-1.696485 -2.008995,-4.832749 0,-3.102782 1.897385,-4.910877 1.908545,-1.819257 5.223387,-1.819257 3.058137,0 4.598369,1.551391 1.54023,1.540229 1.54023,4.442111 z m -3.995671,-2.354989 q -0.03348,-1.261203 -0.625021,-1.897384 -0.591537,-0.636182 -1.841578,-0.636182 -1.160753,0 -1.908546,0.602698 -0.747793,0.602699 -0.837081,1.930868 z"
         id="path24"
         inkscape:label="e" />
      <path
         style="font-weight:900;font-size:22.8579px;line-height:0;font-family:Nim;-inkscape-font-specification:'Nim Heavy';letter-spacing:-1.32292px;fill:#6f6f6f;stroke-width:24.6217;stroke-linecap:round;stroke-linejoin:round"
         d="m 80.008067,57.199326 v 8.884223 h -4.040312 v -6.261368 q 0,-0.915209 -0.04465,-1.551391 -0.04464,-0.647342 -0.245544,-1.049141 -0.200899,-0.401799 -0.613859,-0.580377 -0.401799,-0.189738 -1.138431,-0.189738 -0.591537,0 -1.149591,0.245544 -0.558055,0.234382 -1.004498,0.502248 v 8.884223 h -4.01799 V 53.549652 h 4.01799 v 1.383974 q 1.037981,-0.814759 1.986673,-1.272363 0.948692,-0.457605 2.098284,-0.457605 1.23888,0 2.187572,0.558054 0.948692,0.546894 1.484425,1.618358 1.205397,-1.015659 2.343827,-1.596035 1.138431,-0.580377 2.232217,-0.580377 2.031317,0 3.080459,1.216558 1.060303,1.216559 1.060303,3.504581 v 8.158752 H 84.20463 v -6.261368 q 0,-0.92637 -0.04465,-1.562552 -0.03348,-0.636181 -0.234382,-1.03798 -0.189739,-0.401799 -0.602699,-0.580377 -0.41296,-0.189738 -1.160753,-0.189738 -0.502248,0 -0.982175,0.178577 -0.479927,0.167416 -1.171914,0.569215 z"
         id="path23"
         inkscape:label="m" />
      <path
         id="path21"
         style="font-weight:900;font-size:22.8579px;line-height:0;font-family:Nim;-inkscape-font-specification:'Nim Heavy';letter-spacing:-1.32292px;fill:#6f6f6f;stroke-width:24.6217;stroke-linecap:round;stroke-linejoin:round"
         d="m 65.281349,66.083549 h -4.01799 V 53.549652 h 4.01799 z M 65.39296,51.763878 h -4.241212 v -3.046976 h 4.241212 z"
         inkscape:label="i" />
      <path
         style="font-weight:900;font-size:22.8579px;line-height:0;font-family:Nim;-inkscape-font-specification:'Nim Heavy';letter-spacing:-1.32292px;fill:#6f6f6f;stroke-width:24.6217;stroke-linecap:round;stroke-linejoin:round"
         d="m 60.186643,65.971939 q -0.647342,0.167416 -1.372813,0.256705 -0.72547,0.100449 -1.774612,0.100449 -2.343828,0 -3.49342,-0.948692 -1.13843,-0.948692 -1.13843,-3.247875 v -5.85957 h -1.651841 v -2.723304 h 1.651841 v -3.582708 h 4.01799 v 3.582708 h 3.761285 v 2.723304 h -3.761285 v 4.442112 q 0,0.658504 0.01116,1.149592 0.01116,0.491087 0.178577,0.881725 0.156256,0.390638 0.546894,0.625021 0.401799,0.223222 1.160752,0.223222 0.312511,0 0.81476,-0.133933 0.513409,-0.133933 0.714309,-0.245544 h 0.334832 z"
         id="path20"
         inkscape:label="t" />
      <path
         style="font-weight:900;font-size:22.8579px;line-height:0;font-family:Nim;-inkscape-font-specification:'Nim Heavy';letter-spacing:-1.32292px;fill:#6f6f6f;stroke-width:24.6217;stroke-linecap:round;stroke-linejoin:round"
         d="m 49.801586,66.083549 h -4.040312 v -6.216723 q 0,-0.758954 -0.07813,-1.506747 -0.07813,-0.758954 -0.267866,-1.116108 -0.223221,-0.41296 -0.658504,-0.602699 -0.424121,-0.189738 -1.194236,-0.189738 -0.546893,0 -1.116108,0.178577 -0.558054,0.178577 -1.216558,0.569215 v 8.884223 H 37.211883 V 53.549652 h 4.017991 v 1.383974 q 1.071464,-0.837081 2.053639,-1.283524 0.993337,-0.446444 2.198734,-0.446444 2.031317,0 3.169748,1.183075 1.149591,1.183075 1.149591,3.538064 z"
         id="path19"
         inkscape:label="n" />
      <path
         style="font-weight:900;font-size:22.8579px;line-height:0;font-family:Nim;-inkscape-font-specification:'Nim Heavy';letter-spacing:-1.32292px;fill:#6f6f6f;stroke-width:24.6217;stroke-linecap:round;stroke-linejoin:round"
         d="m 34.740037,66.083549 h -4.01799 v -1.383974 q -1.116109,0.848242 -2.042479,1.294686 -0.92637,0.435282 -2.209894,0.435282 -2.075962,0 -3.203232,-1.194236 -1.116108,-1.194236 -1.116108,-3.526903 v -8.158752 h 4.040313 v 6.216724 q 0,0.948692 0.05581,1.584874 0.06697,0.62502 0.290188,1.037981 0.212061,0.41296 0.636182,0.602698 0.435282,0.189739 1.205397,0.189739 0.51341,0 1.138431,-0.189739 0.62502,-0.189738 1.205397,-0.558054 v -8.884223 h 4.01799 z"
         id="path16"
         inkscape:label="u" />
      <path
         style="font-weight:900;font-size:22.8579px;line-height:0;font-family:Nim;-inkscape-font-specification:'Nim Heavy';letter-spacing:-1.32292px;fill:#fefefe;fill-opacity:1;stroke-width:24.6217;stroke-linecap:round;stroke-linejoin:round"
         d="m 12.406374,54.554149 q 0,-0.62502 -0.256705,-1.071464 -0.256704,-0.446443 -0.881725,-0.703148 -0.435282,-0.178577 -1.015659,-0.212061 -0.5803763,-0.04464 -1.3504911,-0.04464 H 7.3504032 v 4.475595 h 1.317008 q 1.0268197,0 1.7188068,-0.10045 0.691987,-0.10045 1.160753,-0.457604 0.446443,-0.345994 0.647343,-0.758954 0.21206,-0.424121 0.21206,-1.12727 z m 6.68549,11.5294 H 13.857315 L 9.3259151,59.989597 H 7.3504032 v 6.093952 H 3.086869 V 49.464695 h 7.187738 q 1.473263,0 2.533566,0.167416 1.060303,0.167417 1.986673,0.725471 0.937532,0.558054 1.484425,1.450941 0.558054,0.881725 0.558054,2.221055 0,1.841579 -0.859404,3.002332 -0.848242,1.160753 -2.433116,1.930868 z"
         id="text11"
         inkscape:label="R" />
    </g>
  </g>
</svg>
